<?xml version="1.0" encoding="UTF-8"?>
<!-- Created with Grafika (https://www.grafika.cc/) -->
<svg xmlns="http://www.w3.org/2000/svg" xmlns:svg="http://www.w3.org/2000/svg" xmlns:xlink="http://www.w3.org/1999/xlink" width="1504.05" height="1440.63" viewBox="0 0 752.02 720.32" preserveAspectRatio="xMidYMid meet">
	<defs>
		<filter id="filter_1" style="color-interpolation-filters:sRGB" primitiveUnits="userSpaceOnUse" x="-0.054" y="-0.142" width="1.158" height="1.501">
			<feGaussianBlur in="SourceAlpha" stdDeviation="3.39" />
			<feOffset dx="4.73" dy="7.67" />
			<feColorMatrix type="matrix" values="0 0 0 0 0 0 0 0 0 0 0 0 0 0 0 0 0 0 0.53 0" result="dropShadow_1" />
			<feComposite in="SourceGraphic" in2="dropShadow_1" operator="over" result="Layer1" />
		</filter>
	</defs>
	<g transform="matrix(1, 0, 0, 1, 345.1517333984375, 543.4924926757812)">
		<g transform="matrix(5.662598609924316, 0, 0, 5.662598609924316, 77.58447265625, -273.6925048828125)">
			<path d="M-1.24,5.33 Q-1.24,9.54 -2.73,12.97 Q-4.21,16.4 -6.81,18.84 Q-9.42,21.27 -13,22.61 Q-16.59,23.96 -20.77,23.96 Q-24.18,23.96 -26.92,23.03 Q-29.66,22.09 -31.82,20.44 Q-33.98,18.78 -35.53,16.51 Q-37.08,14.23 -38.1,11.57 Q-39.11,8.92 -39.6,5.95 Q-40.08,2.99 -40.08,-0.05 Q-40.08,-3.77 -39.53,-7.31 Q-38.98,-10.85 -37.82,-13.95 Q-36.67,-17.05 -34.84,-19.67 Q-33.01,-22.3 -30.49,-24.16 Q-27.97,-26.02 -24.71,-27.07 Q-21.46,-28.13 -17.39,-28.13 Q-15.9,-28.13 -14.35,-28 Q-12.8,-27.88 -11.25,-27.57 Q-9.69,-27.26 -8.23,-26.75 Q-6.76,-26.23 -5.45,-25.43 L-6.49,-11.85 Q-8.93,-13.05 -11.78,-13.69 Q-14.63,-14.33 -17.32,-14.33 Q-19.45,-14.33 -21.01,-13.69 Q-22.56,-13.05 -23.63,-11.88 Q-24.7,-10.71 -25.3,-9.07 Q-25.9,-7.43 -26.08,-5.43 Q-23.8,-6.74 -21.21,-7.5 Q-18.63,-8.26 -15.94,-8.26 Q-12.9,-8.26 -10.21,-7.33 Q-7.52,-6.4 -5.54,-4.64 Q-3.55,-2.88 -2.4,-0.36 Q-1.24,2.16 -1.24,5.33 ZM-14.35,6.37 Q-14.35,5.3 -14.82,4.45 Q-15.28,3.61 -16.02,3 Q-16.76,2.4 -17.73,2.07 Q-18.7,1.74 -19.66,1.74 Q-20.63,1.74 -21.56,2.07 Q-22.49,2.4 -23.23,3 Q-23.97,3.61 -24.44,4.45 Q-24.9,5.3 -24.9,6.37 Q-24.9,7.4 -24.44,8.25 Q-23.97,9.09 -23.23,9.68 Q-22.49,10.26 -21.56,10.59 Q-20.63,10.92 -19.66,10.92 Q-18.7,10.92 -17.73,10.59 Q-16.76,10.26 -16.02,9.68 Q-15.28,9.09 -14.82,8.25 Q-14.35,7.4 -14.35,6.37 ZM40.18,-1.77 Q40.18,1.26 39.51,4.26 Q38.84,7.26 37.56,10.02 Q36.29,12.78 34.44,15.16 Q32.6,17.54 30.22,19.3 Q27.84,21.06 24.99,22.06 Q22.15,23.06 18.87,23.06 Q15.56,23.06 12.69,22.06 Q9.83,21.06 7.47,19.3 Q5.11,17.54 3.24,15.16 Q1.38,12.78 0.1,10.02 Q-1.17,7.26 -1.84,4.25 Q-2.52,1.23 -2.52,-1.77 Q-2.52,-4.77 -1.84,-7.81 Q-1.17,-10.85 0.1,-13.6 Q1.38,-16.36 3.24,-18.76 Q5.11,-21.16 7.47,-22.92 Q9.83,-24.68 12.71,-25.68 Q15.59,-26.68 18.87,-26.68 Q22.15,-26.68 24.99,-25.68 Q27.84,-24.68 30.22,-22.92 Q32.6,-21.16 34.44,-18.76 Q36.29,-16.36 37.56,-13.6 Q38.84,-10.85 39.51,-7.81 Q40.18,-4.77 40.18,-1.77 ZM25.63,-0.74 Q25.63,-2.26 25.21,-4.12 Q24.8,-5.98 23.94,-7.6 Q23.08,-9.22 21.73,-10.33 Q20.39,-11.43 18.52,-11.43 Q16.63,-11.43 15.28,-10.33 Q13.94,-9.22 13.06,-7.6 Q12.18,-5.98 11.76,-4.12 Q11.35,-2.26 11.35,-0.74 Q11.35,0.78 11.76,2.64 Q12.18,4.5 13.06,6.12 Q13.94,7.75 15.28,8.85 Q16.63,9.95 18.52,9.95 Q20.39,9.95 21.73,8.85 Q23.08,7.75 23.94,6.12 Q24.8,4.5 25.21,2.64 Q25.63,0.78 25.63,-0.74 Z" fill="#F5060B" />
		</g>
		<g transform="matrix(2.669685125350952, 0, 0, 2.669685125350952, 18.22303009033203, -3.89251708984375)" style="filter:url(#filter_1)">
			<path d="M-45.65,-12.84 Q-45.15,-12.3 -44.12,-12.3 Q-43.09,-12.3 -42.58,-12.83 Q-42.06,-13.37 -42.06,-14.33 L-42.06,-14.44 Q-42.06,-15.41 -42.58,-15.94 Q-43.09,-16.47 -44.12,-16.47 Q-45.15,-16.47 -45.65,-15.94 Q-46.15,-15.41 -46.15,-14.44 L-46.15,-14.33 Q-46.15,-13.39 -45.65,-12.84 ZM-45.79,-9 L-45.79,11.08 L-42.46,11.08 L-42.46,-9 L-45.79,-9 ZM-31.64,4.87 Q-30.48,5.07 -29.11,5.07 Q-25.02,5.07 -22.92,3.4 Q-20.82,1.72 -20.82,-1.47 L-20.82,-1.92 Q-20.82,-3.33 -21.26,-4.37 Q-21.71,-5.42 -22.61,-6.12 Q-23.52,-6.82 -24.94,-7.11 L-24.92,-7.26 L-18.87,-7.05 L-18.87,-9.68 L-29.11,-9.36 Q-32.14,-9.27 -34.02,-8.39 Q-35.89,-7.52 -36.74,-5.97 Q-37.59,-4.43 -37.59,-2.35 L-37.59,-1.84 Q-37.59,1.5 -35.4,3.29 Q-34.72,3.85 -33.85,4.23 L-33.85,4.35 Q-34.98,4.43 -35.72,4.76 Q-36.45,5.09 -36.81,5.66 Q-37.16,6.21 -37.16,6.98 L-37.16,7 Q-37.16,8.14 -36.36,8.85 Q-35.55,9.56 -33.88,9.85 L-33.85,9.97 Q-35.08,10.14 -36.09,10.61 Q-37.08,11.08 -37.67,11.91 Q-38.26,12.73 -38.26,13.97 L-38.26,14.05 Q-38.26,15.8 -37.18,16.83 Q-36.1,17.88 -34.14,18.34 Q-32.17,18.8 -29.44,18.8 L-28.85,18.8 Q-26.01,18.8 -23.98,18.25 Q-21.94,17.71 -20.82,16.51 Q-19.71,15.32 -19.71,13.46 L-19.71,13.34 Q-19.71,11 -21.17,9.8 Q-22.63,8.59 -25.83,8.26 L-30.7,7.77 Q-32.53,7.57 -33.29,7.21 Q-34.06,6.86 -34.06,6.19 L-34.06,6.17 Q-34.06,5.53 -33.52,5.21 Q-32.99,4.9 -31.64,4.87 ZM-26.29,2.1 Q-27.42,2.6 -29.16,2.6 Q-30.91,2.6 -32.09,2.09 Q-33.25,1.58 -33.85,0.57 Q-34.43,-0.44 -34.43,-1.92 L-34.43,-2.39 Q-34.43,-3.76 -33.91,-4.77 Q-33.37,-5.79 -32.22,-6.35 Q-31.05,-6.92 -29.2,-6.92 L-29.07,-6.92 Q-27.36,-6.92 -26.24,-6.4 Q-25.1,-5.88 -24.54,-4.86 Q-23.97,-3.86 -23.97,-2.41 L-23.97,-1.92 Q-23.97,-0.44 -24.56,0.58 Q-25.14,1.6 -26.29,2.1 ZM-28.79,16.15 L-29.26,16.15 Q-31.07,16.15 -32.39,15.88 Q-33.71,15.62 -34.43,14.97 Q-35.14,14.34 -35.14,13.28 L-35.14,13.24 Q-35.14,12.34 -34.65,11.73 Q-34.16,11.12 -33.28,10.75 Q-32.6,10.46 -31.75,10.3 L-26.52,10.77 Q-24.51,10.96 -23.68,11.57 Q-22.84,12.18 -22.84,13.32 L-22.84,13.41 Q-22.84,14.4 -23.57,14.99 Q-24.28,15.6 -25.61,15.87 Q-26.93,16.15 -28.79,16.15 ZM-2.4,-1.41 L-2.4,11.08 L0.93,11.08 L0.93,-1.78 Q0.93,-4.25 0.24,-5.95 Q-0.43,-7.65 -1.91,-8.55 Q-3.37,-9.46 -5.76,-9.46 Q-7.78,-9.46 -9.16,-8.78 Q-10.55,-8.12 -11.37,-7 Q-12.2,-5.88 -12.53,-4.51 L-12.64,-4.51 L-12.51,-9 L-15.85,-9 L-15.85,11.08 L-12.51,11.08 L-12.51,-2.69 Q-12.21,-3.66 -11.65,-4.46 Q-10.92,-5.49 -9.77,-6.08 Q-8.6,-6.67 -7.01,-6.67 Q-5.28,-6.67 -4.29,-6.02 Q-3.28,-5.38 -2.84,-4.2 Q-2.4,-3.04 -2.4,-1.41 ZM6.29,-12.84 Q6.8,-12.3 7.82,-12.3 Q8.86,-12.3 9.37,-12.83 Q9.88,-13.37 9.88,-14.33 L9.88,-14.44 Q9.88,-15.41 9.37,-15.94 Q8.86,-16.47 7.82,-16.47 Q6.8,-16.47 6.29,-15.94 Q5.79,-15.41 5.79,-14.44 L5.79,-14.33 Q5.79,-13.39 6.29,-12.84 ZM6.15,-9 L6.15,11.08 L9.49,11.08 L9.49,-9 L6.15,-9 ZM19.09,-8.71 L27.36,-8.71 L27.04,-6.04 L19.17,-6.04 L19.17,4.74 Q19.17,6.72 20.07,7.66 Q20.97,8.59 23.11,8.59 Q24.33,8.59 25.45,8.33 Q26.57,8.06 27.57,7.57 L27.26,10.42 Q26.29,10.92 24.99,11.2 Q23.7,11.5 22.31,11.5 Q19.99,11.5 18.56,10.8 Q17.15,10.1 16.5,8.68 Q15.87,7.25 15.87,5.13 L15.87,-6.04 L12.58,-6.04 L12.58,-8.71 L15.89,-8.71 L15.87,-14.03 L19.23,-14.46 L19.09,-8.71 ZM32.27,9.29 Q34.6,11.54 39.19,11.54 Q41.35,11.54 43.12,11.03 Q44.89,10.53 46.23,9.69 L46.54,6.8 Q45.06,7.69 43.37,8.2 Q41.68,8.71 39.72,8.71 Q38.04,8.71 36.81,8.34 Q35.59,7.96 34.8,7.22 Q34.01,6.49 33.63,5.49 Q33.26,4.48 33.26,3.23 L33.26,2.38 L46.68,2.38 Q46.77,1.74 46.82,1.08 Q46.87,0.42 46.87,-0.23 L46.87,-0.98 Q46.87,-3.63 45.92,-5.54 Q44.98,-7.46 43.1,-8.49 Q41.23,-9.54 38.43,-9.54 Q34.28,-9.54 32.11,-7.24 Q29.95,-4.95 29.95,-0.71 L29.95,2.87 Q29.95,7.05 32.27,9.29 ZM43.67,-0.13 L33.24,-0.13 L33.24,-1.02 Q33.24,-3.82 34.54,-5.32 Q35.83,-6.82 38.43,-6.82 Q40.18,-6.82 41.34,-6.15 Q42.51,-5.49 43.09,-4.22 Q43.67,-2.96 43.67,-1.12 Q43.67,-0.65 43.67,-0.13 Z" fill="#001D3D" />
		</g>
	</g>
</svg>